<?xml version="1.0" encoding="utf-8"?>
<!-- Generator: Adobe Illustrator 25.1.0, SVG Export Plug-In . SVG Version: 6.00 Build 0)  -->
<svg version="1.1" id="Layer_1" xmlns="http://www.w3.org/2000/svg" xmlns:xlink="http://www.w3.org/1999/xlink" x="0px" y="0px"
	 viewBox="0 0 595.3 410" style="enable-background:new 0 0 595.3 410;" xml:space="preserve">
<style type="text/css">
	.st0{fill:#FFFFFF;}
	.st1{fill:#414042;}
</style>
<g>
	<polygon class="st0" points="503.9,55.9 90.7,55.9 113,93.7 275.3,93.7 275.3,363.8 297.3,401 321.2,363.8 321.2,93.7 482.8,93.7 	
		"/>
	<polygon class="st0" points="266.8,270.2 266.8,352 120,102.4 169.2,102.4 	"/>
	<polygon class="st0" points="329.7,270.2 329.7,352 476.5,102.4 427.2,102.4 	"/>
	<g>
		<rect x="25.7" y="36" class="st0" width="23.2" height="88.1"/>
		<polygon class="st0" points="104.4,93.9 81.4,55 81.4,22.5 53.6,22.5 53.6,132.7 81.4,132.7 81.4,93.9 		"/>
		<path class="st0" d="M20.3,60.8c-7.7,1.5-13.5,8.5-13.5,16.9S12.6,93,20.3,94.5V60.8z"/>
	</g>
	<g>
		<rect x="544.8" y="36" class="st0" width="23.2" height="88.1"/>
		<polygon class="st0" points="489.4,93.9 512.3,55 512.3,22.5 540.2,22.5 540.2,132.7 512.3,132.7 512.3,93.9 		"/>
		<path class="st0" d="M573.5,60.8c7.7,1.5,13.5,8.5,13.5,16.9s-5.8,15.4-13.5,16.9V60.8z"/>
	</g>
	<g>
		<g>
			<path class="st1" d="M110,22.3V18h19.6v4.3h-7.3v20.4h-5V22.3H110z"/>
			<path class="st1" d="M144.3,42.7V18h9.4c1.8,0,3.3,0.3,4.6,1c1.3,0.7,2.2,1.6,2.9,2.8s1,2.6,1,4.3c0,1.6-0.3,3-1,4.2
				c-0.7,1.2-1.7,2.1-3,2.7c-1.3,0.6-2.9,0.9-4.7,0.9h-6.3v-4.2h5.5c1,0,1.8-0.1,2.4-0.4c0.6-0.3,1.1-0.7,1.4-1.2
				c0.3-0.5,0.5-1.2,0.5-2c0-0.8-0.2-1.5-0.5-2.1c-0.3-0.6-0.8-1-1.4-1.3c-0.6-0.3-1.4-0.4-2.4-0.4h-3.4v20.5L144.3,42.7L144.3,42.7
				z M157.2,31.5l5.9,11.3h-5.6l-5.8-11.3H157.2z"/>
			<path class="st1" d="M182.4,18v24.7h-5V18H182.4z"/>
			<path class="st1" d="M202.2,42.7h-5.4L205,18h6.5l8.2,24.7h-5.4l-6-19.1h-0.2L202.2,42.7z M201.8,33h12.8v4.1h-12.8V33z"/>
			<path class="st1" d="M254.1,18v24.7h-4.4l-10.4-15.6h-0.2v15.6h-5V18h4.4l10.3,15.5h0.2V18H254.1z"/>
			<path class="st1" d="M285.6,26c-0.2-0.6-0.4-1.1-0.7-1.6c-0.3-0.5-0.7-0.8-1.1-1.2s-0.9-0.6-1.4-0.7c-0.5-0.2-1.1-0.2-1.8-0.2
				c-1.2,0-2.3,0.3-3.2,0.9c-0.9,0.6-1.6,1.5-2.2,2.7c-0.5,1.2-0.8,2.7-0.8,4.4c0,1.7,0.3,3.2,0.8,4.4c0.5,1.2,1.2,2.1,2.1,2.8
				s2,1,3.3,1c1.1,0,2.1-0.2,2.9-0.6c0.8-0.4,1.4-1,1.9-1.8c0.4-0.8,0.6-1.7,0.6-2.7l1,0.2h-6.2v-3.9h10v3.1c0,2.2-0.4,4-1.3,5.6
				c-0.9,1.6-2.1,2.8-3.7,3.6c-1.6,0.8-3.3,1.3-5.3,1.3c-2.2,0-4.2-0.5-5.9-1.5s-3-2.5-4-4.4c-0.9-1.9-1.4-4.1-1.4-6.8
				c0-2,0.3-3.8,0.8-5.4c0.6-1.6,1.4-2.9,2.4-4c1-1.1,2.2-1.9,3.6-2.5c1.4-0.6,2.8-0.9,4.4-0.9c1.4,0,2.6,0.2,3.8,0.6
				c1.2,0.4,2.2,1,3.1,1.7c0.9,0.7,1.6,1.6,2.2,2.6c0.6,1,0.9,2.1,1.1,3.4L285.6,26L285.6,26z"/>
			<path class="st1" d="M306.2,42.7V18h5v20.4h10.2v4.3H306.2z"/>
			<path class="st1" d="M336.3,42.7V18h16.1v4.3h-11v5.9h10.2v4.3h-10.2v5.9h11.1v4.3L336.3,42.7L336.3,42.7z"/>
			<path class="st1" d="M402.8,26c-0.2-0.6-0.4-1.1-0.7-1.6c-0.3-0.5-0.7-0.8-1.1-1.2s-0.9-0.6-1.4-0.7c-0.5-0.2-1.1-0.2-1.8-0.2
				c-1.2,0-2.3,0.3-3.2,0.9c-0.9,0.6-1.6,1.5-2.2,2.7c-0.5,1.2-0.8,2.7-0.8,4.4c0,1.7,0.3,3.2,0.8,4.4c0.5,1.2,1.2,2.1,2.1,2.8
				s2,1,3.3,1c1.1,0,2.1-0.2,2.9-0.6c0.8-0.4,1.4-1,1.9-1.8c0.4-0.8,0.6-1.7,0.6-2.7l1,0.2h-6.2v-3.9h10v3.1c0,2.2-0.4,4-1.3,5.6
				s-2.1,2.8-3.7,3.6c-1.6,0.8-3.3,1.3-5.3,1.3c-2.2,0-4.2-0.5-5.9-1.5c-1.7-1-3-2.5-4-4.4c-0.9-1.9-1.4-4.1-1.4-6.8
				c0-2,0.3-3.8,0.8-5.4c0.6-1.6,1.4-2.9,2.4-4c1-1.1,2.2-1.9,3.6-2.5c1.4-0.6,2.8-0.9,4.4-0.9c1.4,0,2.6,0.2,3.8,0.6
				c1.2,0.4,2.2,1,3.1,1.7c0.9,0.7,1.6,1.6,2.2,2.6c0.6,1,0.9,2.1,1.1,3.4L402.8,26L402.8,26z"/>
			<path class="st1" d="M422.1,18h5.7l5.4,10.6h0.2l5.4-10.6h5.7l-8.7,16v8.7h-5V34L422.1,18z"/>
			<path class="st1" d="M458.7,18h6.2l6.6,16.6h0.3l6.6-16.6h6.2v24.7h-4.9V26.6h-0.2l-6.2,16H470l-6.2-16h-0.2v16.2h-4.9L458.7,18
				L458.7,18z"/>
		</g>
		<g>
			<path d="M110,22.3V18h19.6v4.3h-7.3v20.4h-5V22.3H110z"/>
			<path d="M144.3,42.7V18h9.4c1.8,0,3.3,0.3,4.6,1c1.3,0.7,2.2,1.6,2.9,2.8s1,2.6,1,4.3c0,1.6-0.3,3-1,4.2c-0.7,1.2-1.7,2.1-3,2.7
				c-1.3,0.6-2.9,0.9-4.7,0.9h-6.3v-4.2h5.5c1,0,1.8-0.1,2.4-0.4c0.6-0.3,1.1-0.7,1.4-1.2c0.3-0.5,0.5-1.2,0.5-2
				c0-0.8-0.2-1.5-0.5-2.1c-0.3-0.6-0.8-1-1.4-1.3c-0.6-0.3-1.4-0.4-2.4-0.4h-3.4v20.5L144.3,42.7L144.3,42.7z M157.2,31.5l5.9,11.3
				h-5.6l-5.8-11.3H157.2z"/>
			<path d="M182.4,18v24.7h-5V18H182.4z"/>
			<path d="M202.2,42.7h-5.4L205,18h6.5l8.2,24.7h-5.4l-6-19.1h-0.2L202.2,42.7z M201.8,33h12.8v4.1h-12.8V33z"/>
			<path d="M254.1,18v24.7h-4.4l-10.4-15.6h-0.2v15.6h-5V18h4.4l10.3,15.5h0.2V18H254.1z"/>
			<path d="M285.6,26c-0.2-0.6-0.4-1.1-0.7-1.6c-0.3-0.5-0.7-0.8-1.1-1.2s-0.9-0.6-1.4-0.7c-0.5-0.2-1.1-0.2-1.8-0.2
				c-1.2,0-2.3,0.3-3.2,0.9c-0.9,0.6-1.6,1.5-2.2,2.7c-0.5,1.2-0.8,2.7-0.8,4.4c0,1.7,0.3,3.2,0.8,4.4c0.5,1.2,1.2,2.1,2.1,2.8
				s2,1,3.3,1c1.1,0,2.1-0.2,2.9-0.6c0.8-0.4,1.4-1,1.9-1.8c0.4-0.8,0.6-1.7,0.6-2.7l1,0.2h-6.2v-3.9h10v3.1c0,2.2-0.4,4-1.3,5.6
				c-0.9,1.6-2.1,2.8-3.7,3.6c-1.6,0.8-3.3,1.3-5.3,1.3c-2.2,0-4.2-0.5-5.9-1.5s-3-2.5-4-4.4c-0.9-1.9-1.4-4.1-1.4-6.8
				c0-2,0.3-3.8,0.8-5.4c0.6-1.6,1.4-2.9,2.4-4c1-1.1,2.2-1.9,3.6-2.5c1.4-0.6,2.8-0.9,4.4-0.9c1.4,0,2.6,0.2,3.8,0.6
				c1.2,0.4,2.2,1,3.1,1.7c0.9,0.7,1.6,1.6,2.2,2.6c0.6,1,0.9,2.1,1.1,3.4L285.6,26L285.6,26z"/>
			<path d="M306.2,42.7V18h5v20.4h10.2v4.3H306.2z"/>
			<path d="M336.3,42.7V18h16.1v4.3h-11v5.9h10.2v4.3h-10.2v5.9h11.1v4.3L336.3,42.7L336.3,42.7z"/>
			<path d="M402.8,26c-0.2-0.6-0.4-1.1-0.7-1.6c-0.3-0.5-0.7-0.8-1.1-1.2s-0.9-0.6-1.4-0.7c-0.5-0.2-1.1-0.2-1.8-0.2
				c-1.2,0-2.3,0.3-3.2,0.9c-0.9,0.6-1.6,1.5-2.2,2.7c-0.5,1.2-0.8,2.7-0.8,4.4c0,1.7,0.3,3.2,0.8,4.4c0.5,1.2,1.2,2.1,2.1,2.8
				s2,1,3.3,1c1.1,0,2.1-0.2,2.9-0.6c0.8-0.4,1.4-1,1.9-1.8c0.4-0.8,0.6-1.7,0.6-2.7l1,0.2h-6.2v-3.9h10v3.1c0,2.2-0.4,4-1.3,5.6
				s-2.1,2.8-3.7,3.6c-1.6,0.8-3.3,1.3-5.3,1.3c-2.2,0-4.2-0.5-5.9-1.5c-1.7-1-3-2.5-4-4.4c-0.9-1.9-1.4-4.1-1.4-6.8
				c0-2,0.3-3.8,0.8-5.4c0.6-1.6,1.4-2.9,2.4-4c1-1.1,2.2-1.9,3.6-2.5c1.4-0.6,2.8-0.9,4.4-0.9c1.4,0,2.6,0.2,3.8,0.6
				c1.2,0.4,2.2,1,3.1,1.7c0.9,0.7,1.6,1.6,2.2,2.6c0.6,1,0.9,2.1,1.1,3.4L402.8,26L402.8,26z"/>
			<path d="M422.1,18h5.7l5.4,10.6h0.2l5.4-10.6h5.7l-8.7,16v8.7h-5V34L422.1,18z"/>
			<path d="M458.7,18h6.2l6.6,16.6h0.3l6.6-16.6h6.2v24.7h-4.9V26.6h-0.2l-6.2,16H470l-6.2-16h-0.2v16.2h-4.9L458.7,18L458.7,18z"/>
		</g>
		<g>
			<path class="st0" d="M110,22.3V18h19.6v4.3h-7.3v20.4h-5V22.3H110z"/>
			<path class="st0" d="M144.3,42.7V18h9.4c1.8,0,3.3,0.3,4.6,1c1.3,0.7,2.2,1.6,2.9,2.8s1,2.6,1,4.3c0,1.6-0.3,3-1,4.2
				c-0.7,1.2-1.7,2.1-3,2.7c-1.3,0.6-2.9,0.9-4.7,0.9h-6.3v-4.2h5.5c1,0,1.8-0.1,2.4-0.4c0.6-0.3,1.1-0.7,1.4-1.2
				c0.3-0.5,0.5-1.2,0.5-2c0-0.8-0.2-1.5-0.5-2.1c-0.3-0.6-0.8-1-1.4-1.3c-0.6-0.3-1.4-0.4-2.4-0.4h-3.4v20.5L144.3,42.7L144.3,42.7
				z M157.2,31.5l5.9,11.3h-5.6l-5.8-11.3H157.2z"/>
			<path class="st0" d="M182.4,18v24.7h-5V18H182.4z"/>
			<path class="st0" d="M202.2,42.7h-5.4L205,18h6.5l8.2,24.7h-5.4l-6-19.1h-0.2L202.2,42.7z M201.8,33h12.8v4.1h-12.8V33z"/>
			<path class="st0" d="M254.1,18v24.7h-4.4l-10.4-15.6h-0.2v15.6h-5V18h4.4l10.3,15.5h0.2V18H254.1z"/>
			<path class="st0" d="M285.6,26c-0.2-0.6-0.4-1.1-0.7-1.6c-0.3-0.5-0.7-0.8-1.1-1.2s-0.9-0.6-1.4-0.7c-0.5-0.2-1.1-0.2-1.8-0.2
				c-1.2,0-2.3,0.3-3.2,0.9c-0.9,0.6-1.6,1.5-2.2,2.7c-0.5,1.2-0.8,2.7-0.8,4.4c0,1.7,0.3,3.2,0.8,4.4c0.5,1.2,1.2,2.1,2.1,2.8
				s2,1,3.3,1c1.1,0,2.1-0.2,2.9-0.6c0.8-0.4,1.4-1,1.9-1.8c0.4-0.8,0.6-1.7,0.6-2.7l1,0.2h-6.2v-3.9h10v3.1c0,2.2-0.4,4-1.3,5.6
				c-0.9,1.6-2.1,2.8-3.7,3.6c-1.6,0.8-3.3,1.3-5.3,1.3c-2.2,0-4.2-0.5-5.9-1.5s-3-2.5-4-4.4c-0.9-1.9-1.4-4.1-1.4-6.8
				c0-2,0.3-3.8,0.8-5.4c0.6-1.6,1.4-2.9,2.4-4c1-1.1,2.2-1.9,3.6-2.5c1.4-0.6,2.8-0.9,4.4-0.9c1.4,0,2.6,0.2,3.8,0.6
				c1.2,0.4,2.2,1,3.1,1.7c0.9,0.7,1.6,1.6,2.2,2.6c0.6,1,0.9,2.1,1.1,3.4L285.6,26L285.6,26z"/>
			<path class="st0" d="M306.2,42.7V18h5v20.4h10.2v4.3H306.2z"/>
			<path class="st0" d="M336.3,42.7V18h16.1v4.3h-11v5.9h10.2v4.3h-10.2v5.9h11.1v4.3L336.3,42.7L336.3,42.7z"/>
			<path class="st0" d="M402.8,26c-0.2-0.6-0.4-1.1-0.7-1.6c-0.3-0.5-0.7-0.8-1.1-1.2s-0.9-0.6-1.4-0.7c-0.5-0.2-1.1-0.2-1.8-0.2
				c-1.2,0-2.3,0.3-3.2,0.9c-0.9,0.6-1.6,1.5-2.2,2.7c-0.5,1.2-0.8,2.7-0.8,4.4c0,1.7,0.3,3.2,0.8,4.4c0.5,1.2,1.2,2.1,2.1,2.8
				s2,1,3.3,1c1.1,0,2.1-0.2,2.9-0.6c0.8-0.4,1.4-1,1.9-1.8c0.4-0.8,0.6-1.7,0.6-2.7l1,0.2h-6.2v-3.9h10v3.1c0,2.2-0.4,4-1.3,5.6
				s-2.1,2.8-3.7,3.6c-1.6,0.8-3.3,1.3-5.3,1.3c-2.2,0-4.2-0.5-5.9-1.5c-1.7-1-3-2.5-4-4.4c-0.9-1.9-1.4-4.1-1.4-6.8
				c0-2,0.3-3.8,0.8-5.4c0.6-1.6,1.4-2.9,2.4-4c1-1.1,2.2-1.9,3.6-2.5c1.4-0.6,2.8-0.9,4.4-0.9c1.4,0,2.6,0.2,3.8,0.6
				c1.2,0.4,2.2,1,3.1,1.7c0.9,0.7,1.6,1.6,2.2,2.6c0.6,1,0.9,2.1,1.1,3.4L402.8,26L402.8,26z"/>
			<path class="st0" d="M422.1,18h5.7l5.4,10.6h0.2l5.4-10.6h5.7l-8.7,16v8.7h-5V34L422.1,18z"/>
			<path class="st0" d="M458.7,18h6.2l6.6,16.6h0.3l6.6-16.6h6.2v24.7h-4.9V26.6h-0.2l-6.2,16H470l-6.2-16h-0.2v16.2h-4.9L458.7,18
				L458.7,18z"/>
		</g>
	</g>
</g>
</svg>
