<?xml version="1.0" encoding="UTF-8" standalone="no"?>
<svg
   xmlns:dc="http://purl.org/dc/elements/1.1/"
   xmlns:cc="http://creativecommons.org/ns#"
   xmlns:rdf="http://www.w3.org/1999/02/22-rdf-syntax-ns#"
   xmlns:svg="http://www.w3.org/2000/svg"
   xmlns="http://www.w3.org/2000/svg"
   xmlns:sodipodi="http://sodipodi.sourceforge.net/DTD/sodipodi-0.dtd"
   xmlns:inkscape="http://www.inkscape.org/namespaces/inkscape"
   version="1.1"
   id="svg2"
   xml:space="preserve"
   width="801.20001"
   height="511.18668"
   viewBox="0 0 801.20001 511.18668"
   sodipodi:docname="triangle logo beli.eps"><metadata
     id="metadata8"><rdf:RDF><cc:Work
         rdf:about=""><dc:format>image/svg+xml</dc:format><dc:type
           rdf:resource="http://purl.org/dc/dcmitype/StillImage" /></cc:Work></rdf:RDF></metadata><defs
     id="defs6" /><sodipodi:namedview
     pagecolor="#ffffff"
     bordercolor="#666666"
     borderopacity="1"
     objecttolerance="10"
     gridtolerance="10"
     guidetolerance="10"
     inkscape:pageopacity="0"
     inkscape:pageshadow="2"
     inkscape:window-width="640"
     inkscape:window-height="480"
     id="namedview4" /><g
     id="g10"
     inkscape:groupmode="layer"
     inkscape:label="ink_ext_XXXXXX"
     transform="matrix(1.3333333,0,0,-1.3333333,0,511.18667)"><g
       id="g12"
       transform="scale(0.1)"><path
         d="M 5148.71,3451.72 H 869.348 L 1100.32,3073.18 H 2781.27 V 372.121 L 3009.03,0 3256.04,372.121 V 3073.18 h 1674.54 l 218.13,378.54"
         style="fill:#ffffff;fill-opacity:1;fill-rule:nonzero;stroke:none"
         id="path14" /><path
         d="M 2692.91,1308.82 V 490.809 L 1172.35,2986.57 h 510.07 L 2692.91,1308.82"
         style="fill:#ffffff;fill-opacity:1;fill-rule:nonzero;stroke:none"
         id="path16" /><path
         d="M 3344.4,1308.82 V 490.809 L 4864.95,2986.57 H 4354.89 L 3344.4,1308.82"
         style="fill:#ffffff;fill-opacity:1;fill-rule:nonzero;stroke:none"
         id="path18" /><path
         d="M 436.273,2770.04 H 195.684 v 880.57 h 240.589 v -880.57"
         style="fill:#ffffff;fill-opacity:1;fill-rule:nonzero;stroke:none"
         id="path20" /><path
         d="m 1010.49,3071.58 -237.381,388.97 v 324.79 H 484.395 V 2683.42 h 288.714 v 388.16 h 237.381"
         style="fill:#ffffff;fill-opacity:1;fill-rule:nonzero;stroke:none"
         id="path22" /><path
         d="M 139.543,3402.9 C 60.1094,3387.87 0,3318.2 0,3234.38 0,3150.57 60.1094,3080.9 139.543,3065.86 v 337.04"
         style="fill:#ffffff;fill-opacity:1;fill-rule:nonzero;stroke:none"
         id="path24" /><path
         d="m 5572.7,2770.04 h 240.59 v 880.57 H 5572.7 v -880.57"
         style="fill:#ffffff;fill-opacity:1;fill-rule:nonzero;stroke:none"
         id="path26" /><path
         d="m 4998.48,3071.58 237.38,388.97 v 324.79 h 288.72 V 2683.42 h -288.72 v 388.16 h -237.38"
         style="fill:#ffffff;fill-opacity:1;fill-rule:nonzero;stroke:none"
         id="path28" /><path
         d="m 5869.43,3402.9 c 79.43,-15.03 139.54,-84.7 139.54,-168.52 0,-83.81 -60.11,-153.48 -139.54,-168.52 v 337.04"
         style="fill:#ffffff;fill-opacity:1;fill-rule:nonzero;stroke:none"
         id="path30" /><path
         d="m 1068.8,3787.44 v 43.1 h 203.11 v -43.1 h -75.71 v -204.19 h -51.69 v 204.19 h -75.71"
         style="fill:#393536;fill-opacity:1;fill-rule:nonzero;stroke:none"
         id="path32" /><path
         d="m 1558.05,3695.79 61.46,-112.54 h -57.72 l -60.14,112.54 z M 1424.5,3583.25 v 247.29 h 97.58 c 18.65,0 34.62,-3.32 47.87,-9.96 13.22,-6.64 23.33,-16.01 30.3,-28.13 6.97,-12.12 10.43,-26.34 10.43,-42.69 0,-16.42 -3.54,-30.53 -10.63,-42.32 -7.08,-11.79 -17.31,-20.82 -30.71,-27.1 -13.39,-6.29 -29.61,-9.43 -48.59,-9.43 h -65.34 v 42.02 h 56.87 c 9.99,0 18.26,1.37 24.88,4.11 6.58,2.74 11.54,6.84 14.8,12.32 3.24,5.48 4.87,12.27 4.87,20.4 0,8.21 -1.63,15.14 -4.87,20.78 -3.26,5.62 -8.22,9.91 -14.86,12.85 -6.64,2.95 -14.99,4.41 -25.07,4.41 h -35.25 v -204.55 h -52.28"
         style="fill:#393536;fill-opacity:1;fill-rule:nonzero;stroke:none"
         id="path34" /><path
         d="m 1818.95,3830.54 v -247.29 h -52.28 v 247.29 h 52.28"
         style="fill:#393536;fill-opacity:1;fill-rule:nonzero;stroke:none"
         id="path36" /><path
         d="m 2020.21,3680.45 h 132.33 v -40.81 h -132.33 z m 3.49,-97.2 h -56.04 l 85.37,247.29 h 67.38 l 85.26,-247.29 h -56.04 l -61.93,190.79 h -1.94 l -62.06,-190.79"
         style="fill:#393536;fill-opacity:1;fill-rule:nonzero;stroke:none"
         id="path38" /><path
         d="m 2561.23,3830.54 v -247.29 h -45.16 l -107.59,155.64 h -1.82 v -155.64 h -52.28 v 247.29 h 45.88 l 106.73,-155.52 h 2.19 v 155.52 h 52.05"
         style="fill:#393536;fill-opacity:1;fill-rule:nonzero;stroke:none"
         id="path40" /><path
         d="m 2887.35,3750.61 c -1.71,5.88 -4.06,11.08 -7.13,15.63 -3.08,4.56 -6.79,8.42 -11.19,11.6 -4.37,3.18 -9.35,5.61 -14.97,7.3 -5.59,1.69 -11.76,2.54 -18.51,2.54 -12.64,0 -23.74,-3.15 -33.29,-9.41 -9.52,-6.29 -16.96,-15.4 -22.27,-27.36 -5.32,-11.95 -7.98,-26.55 -7.98,-43.77 0,-17.23 2.63,-31.88 7.86,-43.96 5.23,-12.07 12.65,-21.27 22.23,-27.59 9.57,-6.32 20.89,-9.48 33.92,-9.48 11.85,0 21.94,2.11 30.36,6.34 8.41,4.23 14.86,10.21 19.34,17.93 4.46,7.73 6.7,16.86 6.7,27.41 l 10.62,-1.57 h -63.75 v 39.37 h 103.46 v -31.16 c 0,-21.72 -4.56,-40.39 -13.75,-55.97 -9.18,-15.56 -21.81,-27.56 -37.91,-35.97 -16.1,-8.42 -34.54,-12.62 -55.32,-12.62 -23.19,0 -43.55,5.13 -61.1,15.39 -17.55,10.26 -31.21,24.87 -40.98,43.83 -9.8,18.97 -14.67,41.48 -14.67,67.56 0,20.05 2.91,37.94 8.74,53.69 5.84,15.73 14.04,29.07 24.58,40.02 10.54,10.94 22.83,19.28 36.83,24.99 14,5.72 29.17,8.58 45.52,8.58 14.01,0 27.04,-2.04 39.13,-6.1 12.07,-4.07 22.8,-9.79 32.19,-17.21 9.38,-7.41 17.04,-16.21 22.99,-26.37 5.95,-10.21 9.77,-21.41 11.48,-33.64 h -53.13"
         style="fill:#393536;fill-opacity:1;fill-rule:nonzero;stroke:none"
         id="path42" /><path
         d="m 3101.04,3583.25 v 247.29 h 52.28 v -204.18 h 106.01 v -43.11 h -158.29"
         style="fill:#393536;fill-opacity:1;fill-rule:nonzero;stroke:none"
         id="path44" /><path
         d="m 3412.99,3583.25 v 247.29 h 166.64 v -43.1 h -114.37 v -58.93 h 105.8 v -43.11 h -105.8 v -59.04 h 114.85 v -43.11 h -167.12"
         style="fill:#393536;fill-opacity:1;fill-rule:nonzero;stroke:none"
         id="path46" /><path
         d="m 4102.18,3750.61 c -1.72,5.88 -4.07,11.08 -7.14,15.63 -3.08,4.56 -6.78,8.42 -11.18,11.6 -4.38,3.18 -9.36,5.61 -14.97,7.3 -5.59,1.69 -11.77,2.54 -18.52,2.54 -12.64,0 -23.74,-3.15 -33.28,-9.41 -9.53,-6.29 -16.97,-15.4 -22.28,-27.36 -5.32,-11.95 -7.97,-26.55 -7.97,-43.77 0,-17.23 2.63,-31.88 7.86,-43.96 5.23,-12.07 12.64,-21.27 22.22,-27.59 9.57,-6.32 20.89,-9.48 33.93,-9.48 11.84,0 21.94,2.11 30.35,6.34 8.42,4.23 14.86,10.21 19.34,17.93 4.46,7.73 6.7,16.86 6.7,27.41 l 10.63,-1.57 h -63.76 v 39.37 h 103.47 v -31.16 c 0,-21.72 -4.57,-40.39 -13.76,-55.97 -9.19,-15.56 -21.8,-27.56 -37.91,-35.97 -16.1,-8.42 -34.53,-12.62 -55.31,-12.62 -23.2,0 -43.56,5.13 -61.11,15.39 -17.54,10.26 -31.21,24.87 -40.98,43.83 -9.79,18.97 -14.67,41.48 -14.67,67.56 0,20.05 2.91,37.94 8.75,53.69 5.84,15.73 14.03,29.07 24.57,40.02 10.55,10.94 22.83,19.28 36.84,24.99 14,5.72 29.16,8.58 45.52,8.58 14,0 27.03,-2.04 39.12,-6.1 12.07,-4.07 22.81,-9.79 32.19,-17.21 9.38,-7.41 17.04,-16.21 22.99,-26.37 5.95,-10.21 9.77,-21.41 11.49,-33.64 h -53.13"
         style="fill:#393536;fill-opacity:1;fill-rule:nonzero;stroke:none"
         id="path48" /><path
         d="m 4301.33,3830.54 h 58.56 l 56.4,-106.49 h 2.43 l 56.37,106.49 h 58.58 l -90.21,-159.86 v -87.43 h -51.91 v 87.43 l -90.22,159.86"
         style="fill:#393536;fill-opacity:1;fill-rule:nonzero;stroke:none"
         id="path50" /><path
         d="m 4681.2,3830.54 h 64.47 l 68.11,-166.15 h 2.9 l 68.1,166.15 h 64.48 v -247.29 h -50.72 v 160.95 h -2.05 l -64.01,-159.75 h -34.53 l -63.98,160.36 h -2.08 v -161.56 h -50.69 v 247.29"
         style="fill:#393536;fill-opacity:1;fill-rule:nonzero;stroke:none"
         id="path52" /><path
         d="m 1068.8,3787.44 v 43.1 h 203.11 v -43.1 h -75.71 v -204.19 h -51.69 v 204.19 h -75.71"
         style="fill:#231f20;fill-opacity:1;fill-rule:nonzero;stroke:none"
         id="path54" /><path
         d="m 1558.05,3695.79 61.46,-112.54 h -57.72 l -60.14,112.54 z M 1424.5,3583.25 v 247.29 h 97.58 c 18.65,0 34.62,-3.32 47.87,-9.96 13.22,-6.64 23.33,-16.01 30.3,-28.13 6.97,-12.12 10.43,-26.34 10.43,-42.69 0,-16.42 -3.54,-30.53 -10.63,-42.32 -7.08,-11.79 -17.31,-20.82 -30.71,-27.1 -13.39,-6.29 -29.61,-9.43 -48.59,-9.43 h -65.34 v 42.02 h 56.87 c 9.99,0 18.26,1.37 24.88,4.11 6.58,2.74 11.54,6.84 14.8,12.32 3.24,5.48 4.87,12.27 4.87,20.4 0,8.21 -1.63,15.14 -4.87,20.78 -3.26,5.62 -8.22,9.91 -14.86,12.85 -6.64,2.95 -14.99,4.41 -25.07,4.41 h -35.25 v -204.55 h -52.28"
         style="fill:#231f20;fill-opacity:1;fill-rule:nonzero;stroke:none"
         id="path56" /><path
         d="m 1818.95,3830.54 v -247.29 h -52.28 v 247.29 h 52.28"
         style="fill:#231f20;fill-opacity:1;fill-rule:nonzero;stroke:none"
         id="path58" /><path
         d="m 2020.21,3680.45 h 132.33 v -40.81 h -132.33 z m 3.49,-97.2 h -56.04 l 85.37,247.29 h 67.38 l 85.26,-247.29 h -56.04 l -61.93,190.79 h -1.94 l -62.06,-190.79"
         style="fill:#231f20;fill-opacity:1;fill-rule:nonzero;stroke:none"
         id="path60" /><path
         d="m 2561.23,3830.54 v -247.29 h -45.16 l -107.59,155.64 h -1.82 v -155.64 h -52.28 v 247.29 h 45.88 l 106.73,-155.52 h 2.19 v 155.52 h 52.05"
         style="fill:#231f20;fill-opacity:1;fill-rule:nonzero;stroke:none"
         id="path62" /><path
         d="m 2887.35,3750.61 c -1.71,5.88 -4.06,11.08 -7.13,15.63 -3.08,4.56 -6.79,8.42 -11.19,11.6 -4.37,3.18 -9.35,5.61 -14.97,7.3 -5.59,1.69 -11.76,2.54 -18.51,2.54 -12.64,0 -23.74,-3.15 -33.29,-9.41 -9.52,-6.29 -16.96,-15.4 -22.27,-27.36 -5.32,-11.95 -7.98,-26.55 -7.98,-43.77 0,-17.23 2.63,-31.88 7.86,-43.96 5.23,-12.07 12.65,-21.27 22.23,-27.59 9.57,-6.32 20.89,-9.48 33.92,-9.48 11.85,0 21.94,2.11 30.36,6.34 8.41,4.23 14.86,10.21 19.34,17.93 4.46,7.73 6.7,16.86 6.7,27.41 l 10.62,-1.57 h -63.75 v 39.37 h 103.46 v -31.16 c 0,-21.72 -4.56,-40.39 -13.75,-55.97 -9.18,-15.56 -21.81,-27.56 -37.91,-35.97 -16.1,-8.42 -34.54,-12.62 -55.32,-12.62 -23.19,0 -43.55,5.13 -61.1,15.39 -17.55,10.26 -31.21,24.87 -40.98,43.83 -9.8,18.97 -14.67,41.48 -14.67,67.56 0,20.05 2.91,37.94 8.74,53.69 5.84,15.73 14.04,29.07 24.58,40.02 10.54,10.94 22.83,19.28 36.83,24.99 14,5.72 29.17,8.58 45.52,8.58 14.01,0 27.04,-2.04 39.13,-6.1 12.07,-4.07 22.8,-9.79 32.19,-17.21 9.38,-7.41 17.04,-16.21 22.99,-26.37 5.95,-10.21 9.77,-21.41 11.48,-33.64 h -53.13"
         style="fill:#231f20;fill-opacity:1;fill-rule:nonzero;stroke:none"
         id="path64" /><path
         d="m 3101.04,3583.25 v 247.29 h 52.28 v -204.18 h 106.01 v -43.11 h -158.29"
         style="fill:#231f20;fill-opacity:1;fill-rule:nonzero;stroke:none"
         id="path66" /><path
         d="m 3412.99,3583.25 v 247.29 h 166.64 v -43.1 h -114.37 v -58.93 h 105.8 v -43.11 h -105.8 v -59.04 h 114.85 v -43.11 h -167.12"
         style="fill:#231f20;fill-opacity:1;fill-rule:nonzero;stroke:none"
         id="path68" /><path
         d="m 4102.18,3750.61 c -1.72,5.88 -4.07,11.08 -7.14,15.63 -3.08,4.56 -6.78,8.42 -11.18,11.6 -4.38,3.18 -9.36,5.61 -14.97,7.3 -5.59,1.69 -11.77,2.54 -18.52,2.54 -12.64,0 -23.74,-3.15 -33.28,-9.41 -9.53,-6.29 -16.97,-15.4 -22.28,-27.36 -5.32,-11.95 -7.97,-26.55 -7.97,-43.77 0,-17.23 2.63,-31.88 7.86,-43.96 5.23,-12.07 12.64,-21.27 22.22,-27.59 9.57,-6.32 20.89,-9.48 33.93,-9.48 11.84,0 21.94,2.11 30.35,6.34 8.42,4.23 14.86,10.21 19.34,17.93 4.46,7.73 6.7,16.86 6.7,27.41 l 10.63,-1.57 h -63.76 v 39.37 h 103.47 v -31.16 c 0,-21.72 -4.57,-40.39 -13.76,-55.97 -9.19,-15.56 -21.8,-27.56 -37.91,-35.97 -16.1,-8.42 -34.53,-12.62 -55.31,-12.62 -23.2,0 -43.56,5.13 -61.11,15.39 -17.54,10.26 -31.21,24.87 -40.98,43.83 -9.79,18.97 -14.67,41.48 -14.67,67.56 0,20.05 2.91,37.94 8.75,53.69 5.84,15.73 14.03,29.07 24.57,40.02 10.55,10.94 22.83,19.28 36.84,24.99 14,5.72 29.16,8.58 45.52,8.58 14,0 27.03,-2.04 39.12,-6.1 12.07,-4.07 22.81,-9.79 32.19,-17.21 9.38,-7.41 17.04,-16.21 22.99,-26.37 5.95,-10.21 9.77,-21.41 11.49,-33.64 h -53.13"
         style="fill:#231f20;fill-opacity:1;fill-rule:nonzero;stroke:none"
         id="path70" /><path
         d="m 4301.33,3830.54 h 58.56 l 56.4,-106.49 h 2.43 l 56.37,106.49 h 58.58 l -90.21,-159.86 v -87.43 h -51.91 v 87.43 l -90.22,159.86"
         style="fill:#231f20;fill-opacity:1;fill-rule:nonzero;stroke:none"
         id="path72" /><path
         d="m 4681.2,3830.54 h 64.47 l 68.11,-166.15 h 2.9 l 68.1,166.15 h 64.48 v -247.29 h -50.72 v 160.95 h -2.05 l -64.01,-159.75 h -34.53 l -63.98,160.36 h -2.08 v -161.56 h -50.69 v 247.29"
         style="fill:#231f20;fill-opacity:1;fill-rule:nonzero;stroke:none"
         id="path74" /><path
         d="m 1068.8,3787.44 v 43.1 h 203.11 v -43.1 h -75.71 v -204.19 h -51.69 v 204.19 h -75.71"
         style="fill:#ffffff;fill-opacity:1;fill-rule:nonzero;stroke:none"
         id="path76" /><path
         d="m 1558.05,3695.79 61.46,-112.54 h -57.72 l -60.14,112.54 z M 1424.5,3583.25 v 247.29 h 97.58 c 18.65,0 34.62,-3.32 47.87,-9.96 13.22,-6.64 23.33,-16.01 30.3,-28.13 6.97,-12.12 10.43,-26.34 10.43,-42.69 0,-16.42 -3.54,-30.53 -10.63,-42.32 -7.08,-11.79 -17.31,-20.82 -30.71,-27.1 -13.39,-6.29 -29.61,-9.43 -48.59,-9.43 h -65.34 v 42.02 h 56.87 c 9.99,0 18.26,1.37 24.88,4.11 6.58,2.74 11.54,6.84 14.8,12.32 3.24,5.48 4.87,12.27 4.87,20.4 0,8.21 -1.63,15.14 -4.87,20.78 -3.26,5.62 -8.22,9.91 -14.86,12.85 -6.64,2.95 -14.99,4.41 -25.07,4.41 h -35.25 v -204.55 h -52.28"
         style="fill:#ffffff;fill-opacity:1;fill-rule:nonzero;stroke:none"
         id="path78" /><path
         d="m 1818.95,3830.54 v -247.29 h -52.28 v 247.29 h 52.28"
         style="fill:#ffffff;fill-opacity:1;fill-rule:nonzero;stroke:none"
         id="path80" /><path
         d="m 2020.21,3680.45 h 132.33 v -40.81 h -132.33 z m 3.49,-97.2 h -56.04 l 85.37,247.29 h 67.38 l 85.26,-247.29 h -56.04 l -61.93,190.79 h -1.94 l -62.06,-190.79"
         style="fill:#ffffff;fill-opacity:1;fill-rule:nonzero;stroke:none"
         id="path82" /><path
         d="m 2561.23,3830.54 v -247.29 h -45.16 l -107.59,155.64 h -1.82 v -155.64 h -52.28 v 247.29 h 45.88 l 106.73,-155.52 h 2.19 v 155.52 h 52.05"
         style="fill:#ffffff;fill-opacity:1;fill-rule:nonzero;stroke:none"
         id="path84" /><path
         d="m 2887.35,3750.61 c -1.71,5.88 -4.06,11.08 -7.13,15.63 -3.08,4.56 -6.79,8.42 -11.19,11.6 -4.37,3.18 -9.35,5.61 -14.97,7.3 -5.59,1.69 -11.76,2.54 -18.51,2.54 -12.64,0 -23.74,-3.15 -33.29,-9.41 -9.52,-6.29 -16.96,-15.4 -22.27,-27.36 -5.32,-11.95 -7.98,-26.55 -7.98,-43.77 0,-17.23 2.63,-31.88 7.86,-43.96 5.23,-12.07 12.65,-21.27 22.23,-27.59 9.57,-6.32 20.89,-9.48 33.92,-9.48 11.85,0 21.94,2.11 30.36,6.34 8.41,4.23 14.86,10.21 19.34,17.93 4.46,7.73 6.7,16.86 6.7,27.41 l 10.62,-1.57 h -63.75 v 39.37 h 103.46 v -31.16 c 0,-21.72 -4.56,-40.39 -13.75,-55.97 -9.18,-15.56 -21.81,-27.56 -37.91,-35.97 -16.1,-8.42 -34.54,-12.62 -55.32,-12.62 -23.19,0 -43.55,5.13 -61.1,15.39 -17.55,10.26 -31.21,24.87 -40.98,43.83 -9.8,18.97 -14.67,41.48 -14.67,67.56 0,20.05 2.91,37.94 8.74,53.69 5.84,15.73 14.04,29.07 24.58,40.02 10.54,10.94 22.83,19.28 36.83,24.99 14,5.72 29.17,8.58 45.52,8.58 14.01,0 27.04,-2.04 39.13,-6.1 12.07,-4.07 22.8,-9.79 32.19,-17.21 9.38,-7.41 17.04,-16.21 22.99,-26.37 5.95,-10.21 9.77,-21.41 11.48,-33.64 h -53.13"
         style="fill:#ffffff;fill-opacity:1;fill-rule:nonzero;stroke:none"
         id="path86" /><path
         d="m 3101.04,3583.25 v 247.29 h 52.28 v -204.18 h 106.01 v -43.11 h -158.29"
         style="fill:#ffffff;fill-opacity:1;fill-rule:nonzero;stroke:none"
         id="path88" /><path
         d="m 3412.99,3583.25 v 247.29 h 166.64 v -43.1 h -114.37 v -58.93 h 105.8 v -43.11 h -105.8 v -59.04 h 114.85 v -43.11 h -167.12"
         style="fill:#ffffff;fill-opacity:1;fill-rule:nonzero;stroke:none"
         id="path90" /><path
         d="m 4102.18,3750.61 c -1.72,5.88 -4.07,11.08 -7.14,15.63 -3.08,4.56 -6.78,8.42 -11.18,11.6 -4.38,3.18 -9.36,5.61 -14.97,7.3 -5.59,1.69 -11.77,2.54 -18.52,2.54 -12.64,0 -23.74,-3.15 -33.28,-9.41 -9.53,-6.29 -16.97,-15.4 -22.28,-27.36 -5.32,-11.95 -7.97,-26.55 -7.97,-43.77 0,-17.23 2.63,-31.88 7.86,-43.96 5.23,-12.07 12.64,-21.27 22.22,-27.59 9.57,-6.32 20.89,-9.48 33.93,-9.48 11.84,0 21.94,2.11 30.35,6.34 8.42,4.23 14.86,10.21 19.34,17.93 4.46,7.73 6.7,16.86 6.7,27.41 l 10.63,-1.57 h -63.76 v 39.37 h 103.47 v -31.16 c 0,-21.72 -4.57,-40.39 -13.76,-55.97 -9.19,-15.56 -21.8,-27.56 -37.91,-35.97 -16.1,-8.42 -34.53,-12.62 -55.31,-12.62 -23.2,0 -43.56,5.13 -61.11,15.39 -17.54,10.26 -31.21,24.87 -40.98,43.83 -9.79,18.97 -14.67,41.48 -14.67,67.56 0,20.05 2.91,37.94 8.75,53.69 5.84,15.73 14.03,29.07 24.57,40.02 10.55,10.94 22.83,19.28 36.84,24.99 14,5.72 29.16,8.58 45.52,8.58 14,0 27.03,-2.04 39.12,-6.1 12.07,-4.07 22.81,-9.79 32.19,-17.21 9.38,-7.41 17.04,-16.21 22.99,-26.37 5.95,-10.21 9.77,-21.41 11.49,-33.64 h -53.13"
         style="fill:#ffffff;fill-opacity:1;fill-rule:nonzero;stroke:none"
         id="path92" /><path
         d="m 4301.33,3830.54 h 58.56 l 56.4,-106.49 h 2.43 l 56.37,106.49 h 58.58 l -90.21,-159.86 v -87.43 h -51.91 v 87.43 l -90.22,159.86"
         style="fill:#ffffff;fill-opacity:1;fill-rule:nonzero;stroke:none"
         id="path94" /><path
         d="m 4681.2,3830.54 h 64.47 l 68.11,-166.15 h 2.9 l 68.1,166.15 h 64.48 v -247.29 h -50.72 v 160.95 h -2.05 l -64.01,-159.75 h -34.53 l -63.98,160.36 h -2.08 v -161.56 h -50.69 v 247.29"
         style="fill:#ffffff;fill-opacity:1;fill-rule:nonzero;stroke:none"
         id="path96" /></g></g></svg>
